<?xml version="1.0" standalone="no"?>
<!DOCTYPE svg PUBLIC "-//W3C//DTD SVG 20010904//EN"
 "http://www.w3.org/TR/2001/REC-SVG-20010904/DTD/svg10.dtd">
<svg version="1.0" xmlns="http://www.w3.org/2000/svg"
 width="100.000000pt" height="100.000000pt" viewBox="0 0 100.000000 100.000000"
 preserveAspectRatio="xMidYMid meet">

<g transform="translate(0.000000,100.000000) scale(0.100000,-0.100000)"
fill="#000000" stroke="none">
<path d="M0 721 c0 -29 2 -31 35 -31 19 0 35 5 35 10 0 14 109 13 151 -1 19
-7 41 -18 49 -25 12 -12 9 -12 -20 -4 -19 6 -83 10 -142 10 l-108 0 0 -180 0
-180 98 0 c56 0 119 6 145 14 59 18 62 2 5 -24 -46 -21 -178 -28 -178 -10 0 6
-16 10 -35 10 -32 0 -35 -2 -35 -30 l0 -30 108 5 c154 8 170 11 208 40 47 36
74 94 81 174 7 88 -11 163 -50 208 -51 57 -78 66 -219 71 l-128 4 0 -31z m244
-95 c50 -21 66 -51 66 -122 0 -102 -51 -144 -175 -144 l-65 0 0 140 0 140 70
0 c39 0 86 -6 104 -14z"/>
<path d="M460 485 c0 -49 2 -55 21 -55 39 0 59 19 59 55 0 36 -20 55 -59 55
-19 0 -21 -6 -21 -55z m55 0 c0 -20 -6 -31 -17 -33 -15 -3 -18 4 -18 33 0 29
3 36 18 33 11 -2 17 -13 17 -33z"/>
<path d="M562 494 c3 -54 26 -77 56 -58 19 12 31 104 13 104 -5 0 -11 -19 -13
-42 -2 -30 -8 -43 -18 -43 -10 0 -16 13 -18 43 -2 23 -8 42 -13 42 -6 0 -9
-20 -7 -46z"/>
<path d="M660 485 c0 -30 5 -55 10 -55 6 0 10 9 10 20 0 13 7 20 20 20 11 0
20 5 20 10 0 6 -9 10 -20 10 -11 0 -20 7 -20 15 0 8 9 15 19 15 11 0 23 5 26
10 4 6 -8 10 -29 10 l-36 0 0 -55z"/>
<path d="M740 485 c0 -30 5 -55 10 -55 6 0 10 9 10 20 0 13 7 20 20 20 11 0
20 5 20 10 0 6 -9 10 -20 10 -11 0 -20 7 -20 15 0 9 9 15 25 15 14 0 25 5 25
10 0 6 -16 10 -35 10 l-35 0 0 -55z"/>
<path d="M830 485 l0 -55 35 0 c19 0 35 5 35 10 0 6 -11 10 -25 10 -14 0 -25
5 -25 10 0 6 9 10 20 10 11 0 20 5 20 10 0 6 -9 10 -20 10 -11 0 -20 7 -20 15
0 8 9 15 19 15 11 0 23 5 26 10 4 6 -8 10 -29 10 l-36 0 0 -55z"/>
<path d="M932 528 c-19 -19 -14 -37 13 -50 30 -13 34 -33 5 -25 -11 3 -22 1
-25 -4 -9 -14 44 -22 60 -9 22 18 19 28 -17 50 -31 19 -31 21 -1 24 7 1 14 6
15 11 4 15 -35 18 -50 3z"/>
</g>
</svg>
